<?xml version="1.0" standalone="no"?>
<!DOCTYPE svg PUBLIC "-//W3C//DTD SVG 20010904//EN"
 "http://www.w3.org/TR/2001/REC-SVG-20010904/DTD/svg10.dtd">
<svg version="1.0" xmlns="http://www.w3.org/2000/svg"
 width="456.000000pt" height="456.000000pt" viewBox="0 0 456.000000 456.000000"
 preserveAspectRatio="xMidYMid meet">

<g transform="translate(0.000000,456.000000) scale(0.100000,-0.100000)"
fill="#000000" stroke="none">
<path d="M2256 3846 c-20 -24 -36 -51 -36 -60 0 -24 62 -106 80 -106 22 0 94
96 84 112 -16 27 -77 98 -84 98 -4 0 -24 -20 -44 -44z"/>
<path d="M1813 3665 c-138 -42 -241 -161 -278 -316 -10 -47 -23 -72 -53 -103
-21 -23 -50 -56 -65 -74 l-26 -32 -6 37 c-8 51 -35 111 -64 146 -45 53 -131
83 -192 67 -65 -18 -85 -42 -108 -132 -12 -46 -52 -191 -88 -323 l-66 -240 12
-415 c24 -786 28 -881 46 -935 9 -27 14 -66 12 -85 -3 -20 -43 -117 -91 -215
-48 -99 -85 -186 -84 -193 2 -8 30 -25 62 -38 69 -28 77 -29 50 -9 -10 8 -14
15 -7 15 7 0 10 7 6 16 -5 13 -7 13 -14 2 -7 -10 -9 -10 -9 0 0 7 6 15 14 18
9 3 12 12 9 21 -5 12 -3 14 7 8 10 -6 12 -4 7 8 -4 12 -2 14 11 10 9 -3 179
-68 377 -143 198 -76 417 -159 486 -185 l126 -48 138 8 137 7 14 33 c19 46 63
80 138 105 94 31 167 82 307 216 68 66 205 196 304 289 99 93 296 282 438 420
224 217 262 258 290 315 l32 64 3 203 c4 247 -4 287 -72 353 l-45 44 31 35
c73 83 98 221 79 443 -9 119 -39 175 -115 222 -41 26 -58 30 -115 30 -55 0
-76 -5 -115 -28 -26 -15 -60 -45 -76 -67 -29 -41 -55 -131 -44 -152 12 -20
-10 5 -55 65 -124 165 -323 305 -538 377 -145 49 -374 65 -530 37 -40 -7 -73
-10 -73 -7 0 3 7 15 15 25 22 29 18 69 -8 94 -20 19 -35 22 -98 21 -41 0 -93
-6 -116 -14z m76 -136 c-26 -37 -49 -110 -49 -157 0 -29 3 -33 18 -27 224 97
453 118 672 62 155 -40 251 -89 383 -195 134 -108 222 -239 273 -407 25 -82
28 -105 28 -250 1 -184 -11 -246 -75 -383 -139 -301 -436 -500 -772 -519
l-109 -6 -26 -34 c-43 -55 -137 -120 -207 -143 -37 -12 -69 -20 -71 -17 -3 3
4 23 15 45 22 44 47 162 38 184 -3 9 -20 18 -38 22 -53 10 -210 90 -276 140
-145 110 -256 268 -314 446 -27 81 -32 115 -37 226 -9 257 64 463 229 639 49
53 57 67 67 123 14 80 50 158 93 201 38 38 121 81 157 81 l23 0 -22 -31z
m-669 -238 c56 -29 72 -67 77 -184 5 -92 3 -110 -20 -172 -54 -151 -70 -251
-64 -407 5 -159 22 -238 82 -379 94 -218 253 -384 492 -511 43 -23 80 -43 81
-44 10 -7 -14 -70 -49 -128 -44 -73 -48 -107 -18 -137 19 -19 29 -21 93 -16
39 3 101 15 137 26 74 23 196 99 248 155 33 34 38 36 100 36 164 1 398 82 555
194 34 24 77 51 97 60 40 19 293 245 303 271 3 9 6 94 6 188 0 146 3 178 19
213 46 100 200 77 231 -35 5 -20 10 -119 10 -221 0 -173 -2 -188 -24 -235 -19
-41 -96 -121 -417 -430 -679 -654 -741 -710 -816 -749 -37 -18 -88 -40 -113
-47 -56 -17 -112 -72 -135 -133 -10 -25 -21 -46 -25 -46 -4 0 -221 81 -481
181 -261 99 -517 197 -569 217 -52 19 -96 36 -98 37 -1 1 20 49 47 106 57 122
64 156 46 241 -21 103 -24 158 -41 768 l-16 585 77 279 c46 167 74 287 71 301
-4 17 -1 25 11 28 38 10 70 6 103 -12z m2321 -98 c26 -25 43 -52 49 -78 13
-56 12 -287 -1 -340 -20 -80 -103 -154 -192 -170 l-37 -7 0 60 c0 33 -12 103
-27 158 -22 83 -26 117 -24 209 2 121 10 141 71 183 22 14 48 22 77 22 37 0
50 -6 84 -37z"/>
<path d="M1707 3020 c-34 -27 -36 -72 -5 -94 20 -14 89 -16 550 -16 l528 0 0
-160 c0 -147 2 -162 20 -180 11 -11 29 -20 40 -20 11 0 29 9 40 20 19 19 20
33 20 214 0 192 0 195 -24 223 l-24 28 -559 3 c-555 2 -560 2 -586 -18z"/>
<path d="M1590 2790 c-25 -25 -26 -72 -2 -93 17 -15 59 -17 396 -17 409 0 429
-2 442 -55 9 -37 -2 -45 -67 -45 -66 0 -99 -21 -99 -64 0 -41 43 -66 112 -66
110 0 168 44 176 134 6 74 -2 99 -46 148 -70 78 -67 78 -504 78 -375 0 -389
-1 -408 -20z"/>
<path d="M1702 2564 c-25 -18 -29 -60 -8 -90 13 -17 29 -19 135 -22 117 -4
121 -3 146 22 30 31 31 45 4 80 -20 25 -23 26 -138 26 -89 0 -122 -4 -139 -16z"/>
<path d="M1592 2334 c-25 -18 -29 -60 -8 -90 14 -18 34 -19 678 -22 365 -1
673 0 685 3 54 13 69 66 30 103 l-23 22 -670 0 c-590 0 -672 -2 -692 -16z"/>
<path d="M1700 2080 c-28 -28 -25 -64 6 -89 26 -21 35 -21 586 -21 l559 0 24
25 c30 29 31 45 4 79 l-20 26 -570 0 c-556 0 -569 0 -589 -20z"/>
<path d="M1202 1094 c-50 -35 -35 -44 261 -157 422 -161 396 -154 383 -104
-10 43 -39 67 -116 98 -166 67 -471 179 -488 179 -9 0 -28 -7 -40 -16z"/>
<path d="M2838 3649 c-36 -21 -16 -79 27 -79 43 0 59 44 27 73 -21 19 -30 20
-54 6z"/>
<path d="M1316 3604 c-33 -33 -12 -94 33 -94 53 0 80 60 43 93 -23 21 -56 22
-76 1z"/>
<path d="M3202 3565 c-20 -33 -25 -35 -70 -35 -92 0 -98 -59 -7 -72 51 -7 61
-13 79 -50 6 -12 20 -23 31 -23 19 0 20 7 20 105 0 89 -2 105 -16 108 -10 2
-25 -11 -37 -33z"/>
<path d="M3453 1542 c-14 -10 -73 -99 -73 -111 0 -23 66 -111 82 -111 10 0 29
18 42 39 14 22 30 42 36 46 17 10 12 30 -22 84 -34 52 -48 64 -65 53z"/>
<path d="M3236 1367 c-36 -26 4 -84 42 -61 24 16 27 45 6 61 -10 7 -21 13 -24
13 -3 0 -14 -6 -24 -13z"/>
<path d="M3083 1204 c-6 -3 -17 -29 -24 -58 -9 -42 -8 -65 3 -116 18 -83 34
-87 94 -26 40 40 50 45 96 48 100 6 86 68 -15 68 -45 0 -53 4 -95 45 -25 25
-46 45 -46 44 -1 0 -6 -3 -13 -5z"/>
<path d="M2810 930 c-22 -22 -25 -42 -10 -71 22 -39 100 -15 100 32 0 23 -34
59 -55 59 -8 0 -24 -9 -35 -20z"/>
</g>
</svg>
